<?xml version="1.0" standalone="no"?><!DOCTYPE svg PUBLIC "-//W3C//DTD SVG 1.1//EN" "http://www.w3.org/Graphics/SVG/1.1/DTD/svg11.dtd"><svg t="1729047934435" class="icon" viewBox="0 0 1024 1024" version="1.1" xmlns="http://www.w3.org/2000/svg" p-id="5984" xmlns:xlink="http://www.w3.org/1999/xlink" width="256" height="256"><path d="M933.5 790.4c-0.4-0.9 0 0-0.4-0.4L668.8 406.8v-305c0-15-5.7-25.6-20.7-25.6h-255c-15 0-18 11-18 25.6V398L96.3 790c-0.4 0.9-3.5 4.9-3.5 5.7-22.5 39.4-27.3 74.3-10.2 104.4 17.6 30.5 52.3 47.7 98.1 47.7h660c45.7 0 81.8-17.2 98.9-47.7 17.2-30.5 16.8-70.3-6.1-109.7z m-514-368.6c3.1-4.4 9.2-9.7 9.2-15.5V129.2h186.9v277.1c0 5.7-0.9 11 2.6 15.5l124 185.2c-41.3 17.2-91.5 30.5-197.4-33.1-74.3-44.6-166.7-27.4-229.5-6.2l104.2-145.9z m472.7 451.3c-7.5 12.8-26.4 20.8-51.9 20.8H180.7c-25.5 0-44.4-8-51.9-20.8-7-12.4-4.4-32.3 7.5-53.5l150.8-211.7c52.8-23 163.1-59.7 244.1-11.1 64.6 38.9 111.7 51.3 148.2 51.3 32.1 0 56.3-9.3 77.8-18.6l127.1 190c12.3 21.3 14.9 41.2 7.9 53.6zM575.6 329.5c7.5 0 13.2-6.2 13.2-13.3V168.6c0-7.5-6.2-13.3-13.2-13.3-7.5 0-13.2 6.2-13.2 13.3v147.6c0 7.1 5.7 13.3 13.2 13.3z m0 67.1c7.5 0 13.2-6.2 13.2-13.3V370c0-7.5-6.2-13.3-13.2-13.3-7.5 0-13.2 6.2-13.2 13.3v13.3c0 7.2 5.7 13.3 13.2 13.3zM499 638.4c-29.5 0-53.6 24.3-53.6 53.9 0 29.6 24.2 53.9 53.6 53.9 29.5 0 53.6-24.3 53.6-53.9 0.1-29.6-24.1-53.9-53.6-53.9z m0 81.3c-15 0-26.8-12.4-26.8-27 0-15 12.3-27 26.8-27 15 0 26.8 12.4 26.8 27 0.1 14.7-12.2 27-26.8 27z m-174.1-7.5c-40.5 0-73 32.7-73 73.4s32.5 73.4 73 73.4 73-32.7 73-73.4c0-40.2-33-73.4-73-73.4z m0 120.2c-25.5 0-46.2-20.8-46.2-46.4 0-25.6 20.7-46.4 46.2-46.4 25.5 0 46.2 20.8 46.2 46.4 0 25.2-20.7 46.4-46.2 46.4z m383.5-99.9c-34.7 0-62.9 28.3-62.9 63.2 0 34.9 28.1 63.2 62.9 63.2 34.7 0 62.9-28.3 62.9-63.2-0.1-34.9-28.2-63.2-62.9-63.2z m0 99.9c-20.2 0-36.5-16.3-36.5-36.7 0-20.3 16.3-36.7 36.5-36.7s36.5 16.4 36.5 36.7c-0.5 19.9-16.8 36.7-36.5 36.7z" fill="#ffffff" p-id="5985"></path></svg>