<?xml version="1.0" standalone="no"?><!DOCTYPE svg PUBLIC "-//W3C//DTD SVG 1.1//EN" "http://www.w3.org/Graphics/SVG/1.1/DTD/svg11.dtd"><svg t="1729046887286" class="icon" viewBox="0 0 1024 1024" version="1.1" xmlns="http://www.w3.org/2000/svg" p-id="4750" xmlns:xlink="http://www.w3.org/1999/xlink" width="256" height="256"><path d="M710.4 12.8h-396.8C261.12 12.8 217.6 56.32 217.6 108.8v38.4c0 52.48 43.52 96 96 96h6.4v576c0 106.24 85.76 192 192 192s192-85.76 192-192V243.2h6.4c52.48 0 96-43.52 96-96v-38.4C806.4 56.32 762.88 12.8 710.4 12.8zM404.48 860.16L627.2 637.44v80.64L439.04 907.52c-15.36-12.8-26.88-28.16-34.56-47.36z m222.72-294.4l-230.4 230.4v-80.64l157.44-157.44H627.2v7.68z m-230.4 76.8v-85.76h85.76L396.8 642.56zM512 934.4c-8.96 0-16.64-1.28-25.6-2.56l140.8-140.8V819.2c0 64-51.2 115.2-115.2 115.2z m217.6-787.2c0 10.24-8.96 19.2-19.2 19.2H665.6c-21.76 0-38.4 16.64-38.4 38.4v300.8H396.8V204.8c0-21.76-16.64-38.4-38.4-38.4h-44.8c-10.24 0-19.2-8.96-19.2-19.2v-38.4c0-10.24 8.96-19.2 19.2-19.2h396.8c10.24 0 19.2 8.96 19.2 19.2v38.4z" fill="#ffffff" p-id="4751"></path></svg>