<?xml version="1.0" standalone="no"?><!DOCTYPE svg PUBLIC "-//W3C//DTD SVG 1.1//EN" "http://www.w3.org/Graphics/SVG/1.1/DTD/svg11.dtd"><svg t="1729047953572" class="icon" viewBox="0 0 1024 1024" version="1.1" xmlns="http://www.w3.org/2000/svg" p-id="7122" xmlns:xlink="http://www.w3.org/1999/xlink" width="256" height="256"><path d="M170.666667 511.402667a341.589333 341.589333 0 0 0 330.282666 341.76A341.589333 341.589333 0 0 0 853.333333 534.101333h-363.733333V170.666667A341.546667 341.546667 0 0 0 170.666667 511.402667z" fill="#ffffff" p-id="7123"></path><path d="M540.416 460.928v19.541333h479.530667v29.952c0 281.429333-228.096 509.525333-509.525334 509.525334-281.386667 0-509.482667-228.096-509.482666-509.525334C0.938667 229.034667 229.034667 0.938667 510.421333 0.938667h29.994667v459.989333z m-479.573333 49.493333a449.578667 449.578667 0 0 0 898.218666 29.994667H480.426667V61.824a449.578667 449.578667 0 0 0-419.584 448.597333z" fill="#ffffff" p-id="7124"></path><path d="M991.232 341.461333a29.952 29.952 0 0 1-56.533333 19.882667 450.858667 450.858667 0 0 0-275.498667-275.285333 29.952 29.952 0 0 1 19.84-56.533334 510.805333 510.805333 0 0 1 312.192 311.936z" fill="#ffffff" p-id="7125"></path></svg>