<?xml version="1.0" standalone="no"?><!DOCTYPE svg PUBLIC "-//W3C//DTD SVG 1.1//EN" "http://www.w3.org/Graphics/SVG/1.1/DTD/svg11.dtd"><svg t="1729047976379" class="icon" viewBox="0 0 1024 1024" version="1.1" xmlns="http://www.w3.org/2000/svg" p-id="8414" xmlns:xlink="http://www.w3.org/1999/xlink" width="256" height="256"><path d="M710.4 678.4h-32v-32c0-12.8-12.8-19.2-19.2-19.2-12.8 0-19.2 12.8-19.2 19.2v32h-32c-12.8 0-19.2 12.8-19.2 19.2 0 12.8 12.8 19.2 19.2 19.2h32v32c0 12.8 12.8 19.2 19.2 19.2 12.8 0 19.2-12.8 19.2-19.2v-32h32c12.8 0 19.2-12.8 19.2-19.2 6.4-12.8-6.4-19.2-19.2-19.2z" fill="#ffffff" p-id="8415"></path><path d="M992 217.6c0-83.2-38.4-128-121.6-140.8h-134.4V25.6c0-12.8-12.8-25.6-25.6-25.6s-25.6 12.8-25.6 25.6v57.6H320V25.6c6.4-12.8-6.4-25.6-19.2-25.6-12.8 0-25.6 12.8-25.6 25.6v57.6H140.8c-64 12.8-108.8 57.6-108.8 140.8V876.8c0 70.4 38.4 121.6 108.8 147.2h716.8c70.4-6.4 115.2-51.2 128-147.2 6.4-377.6 6.4-601.6 6.4-659.2z m-44.8 659.2c-6.4 70.4-38.4 96-83.2 102.4h-704c-51.2-19.2-76.8-51.2-76.8-102.4v-57.6-128-467.2c0-57.6 25.6-89.6 70.4-96h128v64c0 12.8 12.8 25.6 25.6 25.6s25.6-12.8 25.6-25.6V128h364.8v64c0 12.8 12.8 25.6 25.6 25.6s25.6-12.8 25.6-25.6V128h134.4c57.6 6.4 83.2 38.4 76.8 96-12.8 44.8-12.8 256-12.8 652.8z" fill="#ffffff" p-id="8416"></path><path d="M512 512c83.2 0 147.2-64 147.2-147.2 0-83.2-64-147.2-147.2-147.2s-147.2 64-147.2 147.2C364.8 448 428.8 512 512 512z m0-249.6c57.6 0 102.4 44.8 102.4 102.4S569.6 473.6 512 473.6s-102.4-51.2-102.4-108.8 44.8-102.4 102.4-102.4zM678.4 550.4H345.6c-89.6 0-160 70.4-160 160v83.2c0 38.4 32 76.8 76.8 76.8H768c38.4 0 76.8-32 76.8-76.8v-83.2c-6.4-89.6-76.8-160-166.4-160z m115.2 243.2c0 19.2-12.8 32-32 32H262.4c-19.2 0-32-12.8-32-32v-83.2c0-64 51.2-115.2 115.2-115.2h339.2c64 0 115.2 51.2 115.2 115.2v83.2z" fill="#ffffff" p-id="8417"></path></svg>