<?xml version="1.0" standalone="no"?><!DOCTYPE svg PUBLIC "-//W3C//DTD SVG 1.1//EN" "http://www.w3.org/Graphics/SVG/1.1/DTD/svg11.dtd"><svg t="1729048409969" class="icon" viewBox="0 0 1024 1024" version="1.1" xmlns="http://www.w3.org/2000/svg" p-id="11597" xmlns:xlink="http://www.w3.org/1999/xlink" width="256" height="256"><path d="M839.74414063 325.953125l-37.65234376 37.65234375c-40.13085938 40.13085938-105.41601563 40.13085938-145.54687499 0s-40.13085938-105.41601563-1e-8-145.546875c0 0 16.875-16.82226563 37.65234375-37.65234375 20.77734375-20.77734375 6.90820313-45.24609375-30.53320312-39.4453125-38.12695313 5.95898438-74.77734375 23.51953125-104.09765625 52.83984375-46.72265625 46.72265625-63.65039063 112.06054688-51.046875 172.3359375L192.79882812 681.91015625c-40.13085938 40.078125-40.13085938 105.36328125 1e-8 145.49414063s105.41601563 40.13085938 145.49414062-1e-8l315.7734375-315.77343749c60.27539063 12.60351563 125.56054688-4.32421875 172.28320313-50.99414063 29.3203125-29.3203125 46.93359375-65.97070313 52.83984374-104.09765625 5.80078125-37.44140625-18.66796875-51.36328125-39.4453125-30.5859375zM289.77734375 778.88867188c-13.39453125 13.39453125-35.12109375 13.39453125-48.515625-1e-8s-13.39453125-35.06835938 0-48.515625c13.39453125-13.39453125 35.06835938-13.39453125 48.515625 0s13.44726563 35.12109375 0 48.515625z m-34.27734375-446.66015626l118.86328125 118.91601563 48.515625-48.515625-118.86328125-118.91601563-26.63085938-50.88867187-84.90234374-60.64453125-48.515625 48.515625 60.64453125 84.90234375zM653.328125 584.50976563c-6.69726563-6.69726563-17.56054688-6.69726563-24.2578125-1e-8l-72.7734375 72.7734375c-6.69726563 6.69726563-6.69726563 17.56054688 0 24.2578125l171.65039063 171.65039063c26.7890625 26.73632813 70.29492188 26.73632813 97.03124999 0 26.7890625-26.73632813 26.7890625-70.2421875 0-97.03125L653.328125 584.50976563z" p-id="11598" fill="#ffffff"></path></svg>