<?xml version="1.0" standalone="no"?><!DOCTYPE svg PUBLIC "-//W3C//DTD SVG 1.1//EN" "http://www.w3.org/Graphics/SVG/1.1/DTD/svg11.dtd"><svg t="1729057104061" class="icon" viewBox="0 0 1024 1024" version="1.1" xmlns="http://www.w3.org/2000/svg" p-id="12676" xmlns:xlink="http://www.w3.org/1999/xlink" width="256" height="256"><path d="M867.4 312.6c-8.4 0-16.4-3.4-22.3-9.3L719.6 177.8c-11.9-12.8-11.2-32.8 1.6-44.7 12.1-11.3 30.9-11.3 43.1 0l125.6 125.6c12.3 12.2 12.5 32.1 0.3 44.4l-0.3 0.3c-6.1 5.8-14.1 9.2-22.5 9.2z m-1.8 247.5c-8.4 0-16.4-3.4-22.3-9.3L472 179.7c-12.3-12.4-12.3-32.4 0.1-44.8 12.4-12.3 32.4-12.3 44.8 0.1l371 371.6c12.3 12.2 12.5 32.1 0.3 44.4l-0.3 0.3c-6 5.7-14 8.9-22.3 8.8z" fill="#ffffff" p-id="12677"></path><path d="M695.5 359.1c-8.4 0.1-26.4 6.7-32.3 0.7-12.3-12.2-12.5-32.1-0.3-44.4l0.3-0.3 113.5-114.6c12.3-12.4 32.4-12.4 44.8-0.1 12.4 12.3 12.4 32.4 0.1 44.8L707.9 358.8c-5.7 6.4-3.8 0.1-12.4 0.3z" fill="#ffffff" p-id="12678"></path><path d="M382.7 841.1c-33.4 0.1-65.5-13.2-89.1-36.9l-73.7-73.7c-49.1-49.3-49.1-129.1 0-178.4l357-357 252.8 252.8-357.9 356.4c-23.6 23.7-55.7 36.9-89.1 36.8z m-44.4-81.7c24.9 23.8 64 23.8 88.9 0l312.5-312.3-162.9-162.2L264.1 597c-11.9 11.7-18.6 27.7-18.5 44.4s6.7 32.7 18.5 44.4l73.7 73.7 0.5-0.1z" fill="#ffffff" p-id="12679"></path><path d="M467.4 546l-54.1-55.8c-8.6-12.5-5.8-29.6 6.3-38.8 12.4-12.2 29.7-15.4 38.8-5.5l54.1 55.8c8.5 12.6 5.7 29.7-6.3 39-9.5 11.8-26.5 14.1-38.8 5.3z m-55.8 122.4l-87.7-88.5c-8.6-12.5-5.9-29.5 6.1-38.8 9.3-12 26.3-14.6 38.8-5.9l87.4 88.3c8.7 12.5 6.1 29.6-5.9 39-9.3 12-26.3 14.6-38.7 5.9zM156.4 899.4c-8.4 0-16.4-3.4-22.3-9.3-12.3-12.2-12.5-32.1-0.3-44.4l0.3-0.3 122.7-122.7c11.9-12.8 27.3-8.9 40.1 3s18.1 27.3 6.2 40.1c-0.5 0.5-1 1.1-1.6 1.6L178.7 890.1c-6 5.9-14 9.3-22.3 9.3z" fill="#ffffff" p-id="12680"></path></svg>