<?xml version="1.0" standalone="no"?><!DOCTYPE svg PUBLIC "-//W3C//DTD SVG 1.1//EN" "http://www.w3.org/Graphics/SVG/1.1/DTD/svg11.dtd"><svg t="1731051113936" class="icon" viewBox="0 0 1024 1024" version="1.1" xmlns="http://www.w3.org/2000/svg" p-id="11438" xmlns:xlink="http://www.w3.org/1999/xlink" width="200" height="200"><path d="M939.564912 269.958737v-3.592983-5.389473c0-1.796491-1.796491-5.389474-3.592982-7.185965-3.592982-7.185965-10.778947-14.37193-17.964912-16.168421l-395.228071-161.684211c-8.982456-3.592982-17.964912-3.592982-26.947368 0l-395.22807 161.684211c-8.982456 3.592982-14.37193 8.982456-17.964913 16.168421-1.796491 1.796491-1.796491 5.389474-3.592982 7.185965v476.070175c0 14.37193 8.982456 26.947368 21.557895 34.133333l395.22807 161.684211h3.592982c3.592982 0 5.389474 1.796491 8.982457 1.796491s5.389474 0 8.982456-1.796491h3.592982l395.22807-161.684211c14.37193-5.389474 21.557895-17.964912 21.557895-34.133333v-467.087719c1.796491 1.796491 1.796491 1.796491 1.796491 0z m-431.157894-122.161404l300.014035 122.161404-300.014035 122.161403-300.014036-122.161403 300.014036-122.161404z m-359.298246 177.852632l323.368421 131.14386v389.838596l-323.368421-131.14386v-389.838596z m718.596491 389.838596l-323.368421 131.14386v-389.838596l323.368421-131.14386v389.838596z" p-id="11439" fill="#ffffff"></path><path d="M217.375439 507.077614l188.631579 77.249123v-71.859649l-188.631579-77.249123v71.859649z" p-id="11440" fill="#ffffff"></path></svg>