<?xml version="1.0" standalone="no"?><!DOCTYPE svg PUBLIC "-//W3C//DTD SVG 1.1//EN" "http://www.w3.org/Graphics/SVG/1.1/DTD/svg11.dtd"><svg t="1729057222861" class="icon" viewBox="0 0 1024 1024" version="1.1" xmlns="http://www.w3.org/2000/svg" p-id="18202" xmlns:xlink="http://www.w3.org/1999/xlink" width="256" height="256"><path d="M782 844v60H595.472l-42.368-170.864c38.712-16.032 75.504-40.76 107.392-72.64 65.264-65.272 105.184-157.712 90.84-243.464 70.44 19.992 149.84 2.768 206.144-53.52l65.736-65.744-42.432-42.424-65.736 65.736a151.376 151.376 0 0 1-23.328 19.096L683.824 132.28a151.48 151.48 0 0 1 19.096-23.328l65.736-65.736L726.232 0.784l-65.736 65.736c-56.168 56.16-73.568 135.536-53.528 206.144-29.296-4.896-59.696-3.28-89.256 3.32L410.608 60H242V0H0v180h242V120h131.392l87 175.448c-34.856 16-67.896 39.072-96.88 68.056-65.632 65.632-105.36 158.44-90.744 244.112-71.488-19.696-152.056-1.312-208.344 54.976L0.784 726.232l42.432 42.424 63.632-63.64a153.68 153.68 0 0 1 25.864-20.76l207.448 207.44a150.136 150.136 0 0 1-19.08 23.36l-65.736 65.728 42.424 42.432 65.736-65.744c55.736-55.736 73.52-135.264 53.376-206.192 26.312 4.424 52.584 3.6 78.64-1.096l53.008 213.816H782v60H1024v-180H782z m-600-724H60V60h122V120z m478.48 73.792l169.72 169.72c-45.552 6.416-92.616-7.768-127.28-42.432-34.672-34.664-48.848-81.736-42.432-127.28zM546.24 331.696c41.656-5.952 84.384 1.944 114.256 31.808 24.752 24.752 39.472 64.176 31.464 116.32L544.176 332.04c0.696-0.104 1.376-0.24 2.072-0.344z m-66.368 20.896l191.536 191.536a269.896 269.896 0 0 1-33.224 51.624L428.24 385.816a269.944 269.944 0 0 1 51.632-33.224z m-116.424 477.552l-168.64-168.64c47.336-6.432 93.416 8.56 126.272 41.416 34.624 34.624 48.744 82.104 42.368 127.224z m114.312-137.84c-46.528 6.64-87.096-4.656-114.256-31.808-24.688-24.696-39.48-64.072-31.464-116.32l147.784 147.784c-0.688 0.104-1.376 0.24-2.064 0.344z m66.368-20.896L352.592 479.872a269.992 269.992 0 0 1 33.224-51.632L595.76 638.184a269.992 269.992 0 0 1-51.632 33.224zM964 964h-122V904h122v60z" fill="#ffffff" p-id="18203"></path></svg>