<?xml version="1.0" standalone="no"?><!DOCTYPE svg PUBLIC "-//W3C//DTD SVG 1.1//EN" "http://www.w3.org/Graphics/SVG/1.1/DTD/svg11.dtd"><svg t="1729057253391" class="icon" viewBox="0 0 1024 1024" version="1.1" xmlns="http://www.w3.org/2000/svg" p-id="19249" xmlns:xlink="http://www.w3.org/1999/xlink" width="256" height="256"><path d="M537.174487 51.310304a36.010819 36.010819 0 1 0-27.32051 61.343351h3.69196a35.954019 35.954019 0 0 0 23.571751-61.343351z m-25.44613-50.551464a78.439969 78.439969 0 0 1 59.355371 16.585424 83.665514 83.665514 0 0 1 24.594139 59.355371h95.934184v119.90353H331.844662V76.699635h95.934184A83.665514 83.665514 0 0 1 452.372986 17.344264 78.439969 78.439969 0 0 1 511.728357 0.75884z m-316.031852 111.894815h104.170096v47.938692H195.696505a32.09166 32.09166 0 0 0-31.978062 31.978061v751.512839a32.148459 32.148459 0 0 0 31.978062 31.978061h632.006904a32.148459 32.148459 0 0 0 31.978062-31.978061V192.570408a32.09166 32.09166 0 0 0-31.978062-31.978061H723.533313v-47.938692h104.170096a80.143951 80.143951 0 0 1 79.973553 79.973552v751.45604a80.143951 80.143951 0 0 1-79.973553 79.973552H195.696505A80.143951 80.143951 0 0 1 115.722952 944.140046V192.570408a80.087152 80.087152 0 0 1 79.973553-79.916753z" fill="#ffffff" p-id="19250"></path><path d="M279.873213 808.219086h463.653488v31.978061H279.873213z m0-295.754467h73.157625l47.313899-117.688353a15.960631 15.960631 0 0 1 29.706085 0l71.056047 185.620433 63.785725-244.975804a15.960631 15.960631 0 0 1 30.103681-2.215177l75.032005 175.055746h73.441622v31.978061H659.520391a15.903832 15.903832 0 0 1-14.654245-9.712697l-60.832155-141.998496-64.353718 247.077383a15.960631 15.960631 0 0 1-30.614876 2.726371L414.714984 444.191742l-35.726821 88.891059a15.960631 15.960631 0 0 1-15.222239 11.359879H279.816414z m0 211.804956h463.653488v31.978062H279.873213z" fill="#ffffff" p-id="19251"></path></svg>