<?xml version="1.0" standalone="no"?><!DOCTYPE svg PUBLIC "-//W3C//DTD SVG 1.1//EN" "http://www.w3.org/Graphics/SVG/1.1/DTD/svg11.dtd"><svg t="1729057293392" class="icon" viewBox="0 0 1024 1024" version="1.1" xmlns="http://www.w3.org/2000/svg" p-id="20303" xmlns:xlink="http://www.w3.org/1999/xlink" width="256" height="256"><path d="M718.976 583.04h169.984c-1.92 2.176-3.712 4.224-5.632 5.888-1.92 1.664-3.584 3.072-4.992 4.224l-1.664 2.176-347.136 334.464c-6.656 6.656-14.848 9.984-24.576 9.984-9.6 0-17.792-3.328-24.576-9.984L132.608 594.176c-1.92-0.768-5.76-4.48-11.648-11.136h205.696c8.192 0 15.488-2.56 22.016-7.552 6.528-4.992 10.624-11.392 12.544-19.2l39.04-156.672 105.856 371.84c2.176 7.424 6.528 13.568 12.8 18.432 6.272 4.864 13.568 7.296 21.76 7.296 7.808 0 14.848-2.432 21.12-7.296 6.272-4.864 10.624-11.008 12.8-18.432l81.408-270.336 31.232 62.464c6.656 12.928 17.28 19.456 31.744 19.456z m285.44-238.592c0 53.888-19.072 109.696-57.472 167.296H741.376l-61.824-123.136c-2.944-6.272-7.68-11.392-14.208-15.104-6.528-3.712-13.312-5.248-20.352-4.48-16.768 1.92-27.136 10.368-31.232 25.6l-71.936 239.744-109.312-382.464c-2.176-7.424-6.656-13.568-13.056-18.432-6.528-4.864-13.824-7.296-22.016-7.296s-15.36 2.56-21.76 7.552c-6.272 4.992-10.368 11.392-12.288 19.2l-64.64 258.688H62.848C24.576 454.016 5.376 398.208 5.376 344.32c0-81.792 23.552-145.664 70.784-191.744 47.232-46.08 112.384-69.12 195.712-69.12 23.04 0 46.592 3.968 70.528 12.032 23.936 7.936 46.208 18.816 66.944 32.384 20.608 13.568 38.4 26.24 53.248 38.144 14.848 11.904 28.928 24.448 42.368 37.888 13.44-13.44 27.52-26.112 42.368-37.888 14.848-11.904 32.64-24.576 53.248-38.144 20.608-13.568 42.88-24.32 66.944-32.384 23.936-7.936 47.488-12.032 70.528-12.032 83.2 0 148.48 23.04 195.712 69.12 47.104 46.208 70.656 110.08 70.656 191.872z m0 0" p-id="20304" fill="#ffffff"></path></svg>