<?xml version="1.0" standalone="no"?><!DOCTYPE svg PUBLIC "-//W3C//DTD SVG 1.1//EN" "http://www.w3.org/Graphics/SVG/1.1/DTD/svg11.dtd"><svg t="1729057501452" class="icon" viewBox="0 0 1024 1024" version="1.1" xmlns="http://www.w3.org/2000/svg" p-id="26446" xmlns:xlink="http://www.w3.org/1999/xlink" width="256" height="256"><path d="M128.078613 767.98528a127.997547 127.997547 0 0 1 120.744353 85.331698H981.395591a42.665849 42.665849 0 0 1 7.679853 84.649044L981.395591 938.648676H248.737634A127.997547 127.997547 0 1 1 128.078613 767.98528zM512.071254 383.99264a127.997547 127.997547 0 0 1 120.744352 85.331698H981.395591a42.665849 42.665849 0 0 1 7.679853 84.649044l-7.679853 0.682654H632.730274a127.997547 127.997547 0 0 1-241.318041 0H42.746916a42.665849 42.665849 0 0 1-7.679853-84.649044L42.746916 469.324338h348.579985A127.997547 127.997547 0 0 1 512.071254 383.99264zM896.063894 0a127.997547 127.997547 0 1 1-120.659021 170.663396H42.746916a42.665849 42.665849 0 0 1-7.679853-84.649045L42.746916 85.331698h732.572625A127.997547 127.997547 0 0 1 896.063894 0z" fill="#ffffff" p-id="26447"></path></svg>