<?xml version="1.0" standalone="no"?><!DOCTYPE svg PUBLIC "-//W3C//DTD SVG 1.1//EN" "http://www.w3.org/Graphics/SVG/1.1/DTD/svg11.dtd"><svg t="1729057529367" class="icon" viewBox="0 0 1024 1024" version="1.1" xmlns="http://www.w3.org/2000/svg" p-id="27464" xmlns:xlink="http://www.w3.org/1999/xlink" width="256" height="256"><path d="M512.5 687.4c-100.6 0-178.8-78.2-178.8-173.2 0-95 78.2-173.2 178.8-173.2 100.6 0 178.8 78.2 178.8 173.2 0 95-78.2 173.2-178.8 173.2z m441.4-234.6c-5.6-16.8-22.3-39.1-39.1-44.7l-16.8-5.6c-33.5-11.2-67-33.5-83.8-67.1-16.8-33.5-22.3-72.6-16.8-106.2L803 218c5.6-16.8 0-44.7-16.8-55.9 0 0-11.2-11.2-50.3-33.5-39.1-22.4-55.9-27.9-55.9-27.9-16.8-5.6-44.7 0-61.5 11.2l-5.6 22.4c-27.9 22.3-61.5 33.5-100.6 33.5-39.1 0-72.6-11.2-100.6-39.1l-11.2-5.6c-11.2-16.8-39.1-22.4-55.9-16.8 0 0-16.8 5.6-55.9 27.9-39.1 22.3-50.3 33.5-50.3 33.5-16.4 11.3-22 39.2-16.4 56l5.6 11.2c5.6 39.1 0 72.6-16.8 106.2-16.8 33.5-50.3 55.9-83.8 67.1h-16.8c-16.8 5.6-39.1 27.9-39.1 44.7 0 0-5.6 16.8-5.6 61.5s5.6 61.5 5.6 61.5c5.6 16.8 22.4 39.1 39.1 44.7h11.2c33.5 11.2 67.1 33.5 83.8 67.1C222 721 227.6 760.1 222 793.6l-5.6 11.2c-5.6 16.8 0 44.7 16.8 55.9 0 0 11.2 11.2 50.3 33.5 39.1 22.4 55.9 27.9 55.9 27.9 16.8 5.6 44.7 0 61.5-11.2l11.2-11.2c27.9-22.4 61.5-39.1 100.6-39.1 39.1 0 72.6 16.8 100.6 39.1l11.2 5.6c11.2 16.8 39.1 22.4 61.5 11.2 0 0 16.8-5.6 55.9-27.9 39.1-22.4 50.3-33.5 50.3-33.5 16.8-11.2 22.3-39.1 16.8-55.9l-5.6-11.2c-5.6-33.5-5.6-72.6 16.8-106.2 16.8-33.5 50.3-55.9 83.8-67.1l11.2-5.6c16.8-5.6 39.1-22.4 39.1-44.7 0 0 5.6-16.8 5.6-61.5-0.4-33.4-6-50.1-6-50.1z m0 0" p-id="27465" fill="#ffffff"></path></svg>