<?xml version="1.0" standalone="no"?><!DOCTYPE svg PUBLIC "-//W3C//DTD SVG 1.1//EN" "http://www.w3.org/Graphics/SVG/1.1/DTD/svg11.dtd"><svg t="1729057620531" class="icon" viewBox="0 0 1024 1024" version="1.1" xmlns="http://www.w3.org/2000/svg" p-id="30633" xmlns:xlink="http://www.w3.org/1999/xlink" width="256" height="256"><path d="M788.2 146.2L454.3 66.4c-4.3-0.8-8.7-0.8-12.9 0l-327.5 79.8c-17.1 2.6-29.7 17.2-29.7 34.5v380.9c0 24.7 6.3 49.2 18.9 73.6 13.4 25.6 30 49.5 49.3 71 21.1 23.7 44.4 45.5 69.3 65 25.1 19.9 51.6 38.2 79.1 54.7 26.8 16 52.7 29.4 77.7 39.9 24.9 10.6 46.8 17.9 65.6 21.8l8 1.5 8.7-1.5c18.4-4 39.8-11.2 64.3-21.8 24.4-10.6 49.6-23.9 75.5-39.9 26.7-16.6 52.3-34.9 76.6-54.7 24.3-19.6 46.7-41.4 67.1-65 18.7-21.6 34.7-45.5 47.5-71 12.1-24.3 18.1-48.8 18.1-73.5V172.9c0.1-12.9-9-24-21.7-26.7z" fill="#ffffff" p-id="30634"></path><path d="M625.9 899.4c5.9 11.7 0.7 25.9-11.2 31.3-4.3 1.9-8.5 3.8-12.7 5.6-22.5 9.6-43.5 16.8-62.2 21.3l-1.8 0.5c-1.9 0.5-3.8 1-5.6 1.4l-12.9 2.4-12.5-2.2c-2.6-0.5-4.4-1-6.2-1.4l-2.2-0.6c-18.7-4.5-39.7-11.7-62.3-21.3-25.3-10.7-52.4-24.6-80.4-41.3-28.3-16.9-55.8-35.9-81.6-56.4-25.8-20.3-50.1-43.1-72.2-67.7-20.5-22.8-38.2-48.2-52.5-75.6-14.4-27.8-21.6-56.1-21.6-84.4V230.1c0-28 20.6-52.3 48.1-57l326.6-79.6c5.9-1.1 11.2-1.4 16.5-1 5.3-0.4 10.5-0.2 15.3 0.7l327.7 79.9c27.5 4.7 48.1 29 48.1 57v296.3c0 12.7-10.3 22.9-22.9 22.9s-22.9-10.3-22.9-22.9V230.1c0-5.9-4.4-11-10.2-11.8l-2-0.4L524.8 138c0.2 0.1-1.1 0.1-2.6 0.3l-3 0.4-3-0.4c-1.5-0.2-2.8-0.2-3.8 0l-328.3 80c-5.8 0.9-10.2 6-10.2 11.8V611c0 20.9 5.5 42.1 16.3 63 12.5 23.9 28 46.2 46 66.2 20.3 22.7 42.6 43.7 66.4 62.4 24.4 19.3 50.2 37.1 76.7 53 26.2 15.6 51.3 28.6 74.8 38.5 20.3 8.7 38.9 15.1 55.2 19l9.6 2.2h0.2l9.6-2.2c16.5-4 35-10.4 55.2-19 4-1.7 8-3.4 12-5.3 11.3-5 24.5-0.3 30 10.6z m315.3-168.6v38.6c0 5.4-4.4 9.9-9.9 9.9h-26.9c-0.8 0-1.5-0.3-2.2-0.4-3.1 12.4-8.1 24.1-14.7 34.7 0.6 0.4 1.2 0.6 1.7 1.1l19 19c3.8 3.8 3.8 10.1 0 14L880.9 875c-3.8 3.8-10.1 3.8-14 0l-19-19c-0.6-0.6-1-1.4-1.4-2.2-10.7 6.4-22.4 11.2-34.8 14 0.2 0.8 0.5 1.5 0.5 2.3V897c0 5.4-4.4 9.9-9.9 9.9h-38.6c-5.4 0-9.9-4.4-9.9-9.9v-26.9c0-1.1 0.3-2.1 0.6-3.1-12.3-3.1-23.8-8.1-34.3-14.7-0.5 0.9-0.9 1.8-1.7 2.5l-19 19c-3.8 3.8-10.1 3.8-14 0l-27.3-27.3c-3.8-3.8-3.8-10.1 0-14l19-19c0.9-0.9 1.9-1.5 3-2-6.3-10.6-11.1-22.1-14-34.5-1 0.4-2.1 0.7-3.2 0.7H636c-5.4 0-9.9-4.4-9.9-9.9v-38.6c0-5.4 4.4-9.9 9.9-9.9h26.9c1.3 0 2.5 0.3 3.6 0.7 3-12.3 7.9-23.8 14.4-34.3-1-0.5-1.9-1-2.7-1.8l-19-19c-3.8-3.8-3.8-10.1 0-14l27.3-27.3c3.8-3.8 10.1-3.8 14 0l19 19c0.8 0.8 1.4 1.8 1.9 2.8 10.6-6.4 22.1-11.3 34.5-14.3-0.3-0.9-0.6-1.8-0.6-2.7v-26.9c0-5.4 4.4-9.9 9.9-9.9h38.6c5.4 0 9.9 4.4 9.9 9.9v26.9c0 1-0.3 1.8-0.6 2.7 12.4 3 24.1 7.9 34.7 14.4 0.4-0.6 0.7-1.3 1.2-1.9l19-19c3.8-3.8 10.1-3.8 14 0l27.3 27.3c3.8 3.8 3.8 10.1 0 14l-19 19c-0.6 0.6-1.3 0.9-2 1.3 6.5 10.7 11.4 22.4 14.4 34.9 0.6-0.1 1.2-0.4 1.8-0.4h26.9c5.3 0.2 9.8 4.6 9.8 10.1z m-80.7 18.5c0-42-34.1-76.1-76.1-76.1-42 0-76.1 34.1-76.1 76.1 0 42 34.1 76.1 76.1 76.1 41.9 0 76.1-34.1 76.1-76.1zM690 345L460.8 574.3 340.5 454c-14.3-14.3-37.6-14.3-51.9 0-14.3 14.3-14.3 37.6 0 51.9l146.2 146.2c14.3 14.3 37.6 14.3 51.9 0l255.2-255.2c14.3-14.3 14.3-37.6 0-51.9-14.3-14.2-37.6-14.2-51.9 0z" fill="#ffffff" p-id="30635"></path></svg>