<?xml version="1.0" standalone="no"?><!DOCTYPE svg PUBLIC "-//W3C//DTD SVG 1.1//EN" "http://www.w3.org/Graphics/SVG/1.1/DTD/svg11.dtd"><svg t="1729057894003" class="icon" viewBox="0 0 1228 1024" version="1.1" xmlns="http://www.w3.org/2000/svg" p-id="31837" xmlns:xlink="http://www.w3.org/1999/xlink" width="307" height="256"><path d="M1177.6 51.2c0-28.16-23.04-51.2-51.2-51.2h-102.4c-28.16 0-51.2 23.04-51.2 51.2v819.2h204.8V51.2z m-51.2 768h-102.4V51.2h102.4v768zM204.8 972.8h1024v51.2h-1024zM256 563.2c0-28.16-23.04-51.2-51.2-51.2h-102.4c-28.16 0-51.2 23.04-51.2 51.2v307.2h204.8V563.2z m-51.2 256h-102.4V563.2h102.4v256zM563.2 256c0-28.16-23.04-51.2-51.2-51.2h-102.4c-28.16 0-51.2 23.04-51.2 51.2v614.4h204.8V256z m-51.2 563.2h-102.4V256h102.4v563.2zM0 972.8h102.4v51.2h-102.4zM870.4 358.4c0-28.16-23.04-51.2-51.2-51.2h-102.4c-28.16 0-51.2 23.04-51.2 51.2v512h204.8V358.4z m-51.2 460.8h-102.4V358.4h102.4v460.8z" fill="#ffffff" p-id="31838"></path></svg>