<?xml version="1.0" standalone="no"?><!DOCTYPE svg PUBLIC "-//W3C//DTD SVG 1.1//EN" "http://www.w3.org/Graphics/SVG/1.1/DTD/svg11.dtd"><svg t="1729058056413" class="icon" viewBox="0 0 1024 1024" version="1.1" xmlns="http://www.w3.org/2000/svg" p-id="36203" xmlns:xlink="http://www.w3.org/1999/xlink" width="256" height="256"><path d="M512 8a504.064 504.064 0 1 0 0.064 1008.064A504.064 504.064 0 0 0 512 8z m0 922.496A418.56 418.56 0 0 1 512 93.504a418.56 418.56 0 0 1 0 836.992z" fill="#ffffff" p-id="36204"></path><path d="M457.984 313.984a54.016 54.016 0 1 0 108.032 0 54.016 54.016 0 0 0-108.032 0zM539.008 440h-54.016a9.024 9.024 0 0 0-8.96 8.96v306.048c0 4.928 4.032 8.96 8.96 8.96h54.016c4.928 0 8.96-4.032 8.96-8.96V449.024a9.024 9.024 0 0 0-8.96-9.024z" fill="#ffffff" p-id="36205"></path></svg>