<?xml version="1.0" standalone="no"?><!DOCTYPE svg PUBLIC "-//W3C//DTD SVG 1.1//EN" "http://www.w3.org/Graphics/SVG/1.1/DTD/svg11.dtd"><svg t="1730431789603" class="icon" viewBox="0 0 1024 1024" version="1.1" xmlns="http://www.w3.org/2000/svg" p-id="3756" xmlns:xlink="http://www.w3.org/1999/xlink" width="200" height="200"><path d="M576 388.266667c12.8 0 21.333333 8.533333 21.333333 21.333333s-8.533333 21.333333-21.333333 21.333333h-298.666667c-12.8 0-21.333333-8.533333-21.333333-21.333333s8.533333-21.333333 21.333333-21.333333h298.666667z m-42.666667 128h-256c-12.8 0-21.333333 8.533333-21.333333 21.333333s8.533333 21.333333 21.333333 21.333333h256c12.8 0 21.333333-8.533333 21.333334-21.333333s-8.533333-21.333333-21.333334-21.333333z m-42.666666 128h-213.333334c-12.8 0-21.333333 8.533333-21.333333 21.333333s8.533333 21.333333 21.333333 21.333333h213.333334c12.8 0 21.333333-8.533333 21.333333-21.333333s-8.533333-21.333333-21.333333-21.333333z m405.333333 85.333333c0 93.866667-76.8 170.666667-170.666667 170.666667s-170.666667-76.8-170.666666-170.666667 76.8-170.666667 170.666666-170.666667 170.666667 76.8 170.666667 170.666667z m-149.333333-128v102.4h102.4c-8.533333-51.2-46.933333-89.6-102.4-102.4z m102.4 149.333333h-145.066667v-145.066666c-59.733333 8.533333-106.666667 64-106.666667 123.733333 0 72.533333 55.466667 128 128 128 64 0 115.2-46.933333 123.733334-106.666667z m-358.4 106.666667H213.333333c-25.6 0-42.666667-17.066667-42.666666-42.666667v-554.666666c0-25.6 17.066667-42.666667 42.666666-42.666667h42.666667v42.666667h341.333333v-42.666667h42.666667c25.6 0 42.666667 17.066667 42.666667 42.666667v192c0 12.8 8.533333 21.333333 21.333333 21.333333s21.333333-8.533333 21.333333-21.333333V260.266667c0-46.933333-38.4-85.333333-85.333333-85.333334h-128v-42.666666h-170.666667v42.666666H213.333333c-46.933333 0-85.333333 38.4-85.333333 85.333334v554.666666c0 46.933333 38.4 85.333333 85.333333 85.333334h277.333334c12.8 0 21.333333-8.533333 21.333333-21.333334s-8.533333-21.333333-21.333333-21.333333z" fill="#ffffff" p-id="3757"></path></svg>