<?xml version="1.0" standalone="no"?><!DOCTYPE svg PUBLIC "-//W3C//DTD SVG 1.1//EN" "http://www.w3.org/Graphics/SVG/1.1/DTD/svg11.dtd"><svg t="1730453313562" class="icon" viewBox="0 0 1024 1024" version="1.1" xmlns="http://www.w3.org/2000/svg" p-id="11024" xmlns:xlink="http://www.w3.org/1999/xlink" width="200" height="200"><path d="M364.8 501.333333c-6.4 8.533333-17.066667 14.933333-27.733333 12.8H277.333333c-19.2 0-34.133333-14.933333-34.133333-34.133333 0-19.2 14.933333-34.133333 34.133333-34.133333h42.666667l64-87.466667c10.666667-14.933333 32-19.2 46.933333-6.4 2.133333 2.133333 6.4 4.266667 8.533334 8.533333l59.733333 87.466667h125.866667c19.2 0 34.133333 14.933333 34.133333 34.133333 0 19.2-14.933333 34.133333-34.133333 34.133334h-142.933334c-10.666667 0-21.333333-6.4-27.733333-14.933334l-42.666667-61.866666-46.933333 61.866666z m364.8 132.266667l138.666667 138.666667c25.6 25.6 25.6 70.4 0 96-25.6 25.6-70.4 25.6-96 0l-138.666667-138.666667c-160 106.666667-379.733333 57.6-480-108.8-89.6-149.333333-49.066667-345.6 91.733333-448 157.866667-115.2 377.6-74.666667 484.266667 87.466667 74.666667 113.066667 74.666667 260.266667 0 373.333333z m-283.733333 51.2c132.266667 0 236.8-106.666667 236.8-236.8S576 211.2 445.866667 211.2c-132.266667 0-236.8 106.666667-236.8 236.8s106.666667 236.8 236.8 236.8z" fill="#ffffff" p-id="11025"></path></svg>