<?xml version="1.0" standalone="no"?><!DOCTYPE svg PUBLIC "-//W3C//DTD SVG 1.1//EN" "http://www.w3.org/Graphics/SVG/1.1/DTD/svg11.dtd"><svg t="1732256014863" class="icon" viewBox="0 0 1131 1024" version="1.1" xmlns="http://www.w3.org/2000/svg" p-id="6230" xmlns:xlink="http://www.w3.org/1999/xlink" width="220.8984375" height="200"><path d="M791.633029 548.969337c-123.568744 0-223.841741 100.272997-223.841741 223.841741 0 84.06726 45.578635 156.993076 114.453017 194.468843v10.128585c0 23.295747 19.244313 42.540059 42.540059 42.54006h133.697329c23.295747 0 42.540059-19.244313 42.54006-42.54006v-10.128585c68.874382-38.488625 114.453017-111.414441 114.453017-195.481701 0-123.568744-100.272997-222.828882-223.841741-222.828883z m116.478734 142.813057c-4.051434 3.038576-8.102868 4.051434-12.154303 4.051434-6.077151 0-12.154303-3.038576-16.205737-7.09001-19.244313-21.27003-45.578635-34.437191-73.938675-38.488625-11.141444-2.025717-19.244313-11.141444-19.244312-21.27003 0-12.154303 10.128586-21.27003 21.27003-21.270029h3.038575c38.488625 5.064293 74.951533 23.295747 101.285856 51.655786 4.051434 5.064293 6.077151 11.141444 5.064293 17.218595 0 6.077151-4.051434 12.154303-9.115727 15.192879z m50.642927 32.411473c3.038576 7.09001 5.064293 13.167161 7.09001 20.257172 3.038576 11.141444-4.051434 23.295747-15.192878 26.334322-2.025717 0-4.051434 1.012859-6.077151 1.012859-10.128586 0-18.231454-7.09001-21.27003-16.205737-1.012859-5.064293-3.038576-10.128586-5.064293-15.192879-4.051434-9.115727 0-20.257171 8.102869-25.321464 4.051434-3.038576 8.102868-4.051434 12.154302-4.051434 9.115727-1.012859 17.218595 5.064293 20.257171 13.167161zM795.684463 505.416419h-7.09001c-18.231454 0-33.424332-15.192878-33.424332-33.424332v-38.488625c0-18.231454 15.192878-33.424332 33.424332-33.424332h7.09001c18.231454 0 33.424332 15.192878 33.424332 33.424332v38.488625c0 18.231454-15.192878 33.424332-33.424332 33.424332zM928.368934 542.892186l-6.077152-3.038576c-16.205737-9.115727-21.27003-30.385757-12.154302-46.591493l19.244312-32.411474c9.115727-16.205737 30.385757-21.27003 46.591494-12.154303l6.077151 3.038576c16.205737 9.115727 21.27003 30.385757 12.154303 46.591493l-19.244313 32.411474c-10.128586 16.205737-31.398615 21.27003-46.591493 12.154303zM1024.590497 641.139466l-3.038576-6.077151c-9.115727-16.205737-4.051434-36.462908 12.154303-46.591494l32.411473-19.244313c16.205737-9.115727 36.462908-4.051434 46.591494 12.154303l3.038576 6.077151c9.115727 16.205737 4.051434 36.462908-12.154303 46.591494l-32.411474 19.244313c-17.218595 10.128586-37.475767 4.051434-46.591493-12.154303zM661.987134 539.85361l-6.077152 3.038576c-16.205737 9.115727-36.462908 4.051434-46.591493-12.154303L591.087035 497.313551c-10.128586-16.205737-4.051434-36.462908 12.154302-45.578635l6.077152-3.038576c16.205737-9.115727 36.462908-4.051434 46.591493 12.154303l19.244313 32.411474c8.102868 16.205737 3.038576 36.462908-13.167161 46.591493z" fill="#ffffff" p-id="6231"></path><path d="M489.801179 813.32542H358.129567c-12.154303 0-23.295747-5.064293-32.411474-13.167161-8.102868-8.102868-13.167161-20.257171-13.167161-32.411474 0-12.154303 5.064293-23.295747 13.167161-32.411473 8.102868-8.102868 20.257171-13.167161 32.411474-13.167162h110.401582L439.158251 704.949555c-29.372898-16.205737-47.604352-44.565776-54.694362-73.938675H358.129567c-12.154303 0-23.295747-5.064293-32.411474-13.167161-8.102868-8.102868-13.167161-20.257171-13.167161-32.411474 0-12.154303 5.064293-23.295747 13.167161-32.411473 8.102868-8.102868 20.257171-13.167161 32.411474-13.167162h44.565776c21.27003-33.424332 57.732938-54.694362 97.234422-54.694362h4.051434c0-11.141444 1.012859-23.295747 4.051434-34.437191 0-1.012859 1.012859-2.025717 1.012859-2.025717H359.142425c-12.154303 0-23.295747-5.064293-32.411473-13.167161-8.102868-8.102868-13.167161-20.257171-13.167162-32.411474 0-12.154303 5.064293-23.295747 13.167162-32.411474 8.102868-8.102868 20.257171-13.167161 32.411473-13.167161h344.371909c21.27003-23.295747 51.655786-38.488625 86.092978-38.488625h7.090009c44.565776 0 82.041543 25.321464 101.285856 61.784372 14.18002-9.115727 29.372898-15.192878 46.591494-17.218595V203.58457c0-24.308605-10.128586-47.604352-27.347181-64.822948-17.218595-17.218595-40.514342-26.334322-64.822948-26.334322h-91.15727v22.282888c0 18.231454-7.09001 35.450049-20.257171 48.617211-13.167161 13.167161-30.385757 20.257171-48.617211 20.257171H252.792277c-37.475767 0-68.874382-30.385757-68.874382-67.861524v-22.282888h-91.15727c-24.308605 0-47.604352 9.115727-64.822947 26.334323-17.218595 17.218595-27.347181 40.514342-27.347181 64.822947v728.245302c0 24.308605 10.128586 47.604352 26.334322 64.822948 17.218595 17.218595 40.514342 26.334322 64.822948 26.334322h517.570722l-3.038576-9.115727C543.482682 965.254204 500.942623 892.328388 489.801179 813.32542z m-235.996043-14.180019c-8.102868 8.102868-20.257171 13.167161-32.411474 13.167161-12.154303 0-23.295747-5.064293-32.411474-13.167161-8.102868-8.102868-13.167161-20.257171-13.167161-32.411474 0-12.154303 5.064293-23.295747 13.167161-32.411474 8.102868-8.102868 20.257171-13.167161 32.411474-13.167161 12.154303 0 23.295747 5.064293 32.411474 13.167161 8.102868 8.102868 13.167161 20.257171 13.167161 32.411474 0 13.167161-4.051434 24.308605-13.167161 32.411474z m-20.257172-170.160238c-20.257171 5.064293-41.527201-3.038576-51.655786-21.270029-8.102868-14.18002-8.102868-31.398615 0-45.578635s23.295747-23.295747 39.501484-23.295747c12.154303 0 23.295747 5.064293 32.411474 13.167161 8.102868 8.102868 13.167161 20.257171 13.167161 32.411474 0 21.27003-14.18002 39.501484-33.424333 44.565776z m0-182.31454c-20.257171 5.064293-41.527201-3.038576-51.655786-21.27003-8.102868-14.18002-8.102868-31.398615 0-45.578635s23.295747-22.282888 39.501484-22.282888c25.321464 0 45.578635 20.257171 45.578635 45.578635 0 20.257171-13.167161 38.488625-33.424333 43.552918z" fill="#ffffff" p-id="6232"></path><path d="M262.920863 175.22453h418.310583c29.372898 0 52.668645-23.295747 52.668645-52.668645s-23.295747-52.668645-52.668645-52.668645H557.662702c-8.102868-40.514342-43.552918-69.88724-85.080118-69.88724-41.527201 0-76.97725 29.372898-85.080119 69.88724H262.920863c-29.372898 0-52.668645 23.295747-52.668645 52.668645s24.308605 52.668645 52.668645 52.668645zM702.501476 609.740851l-6.077152 3.038575c-15.192878 8.102868-31.398615 13.167161-48.61721 15.192879v3.038575h80.015826c12.154303 0 23.295747-5.064293 32.411473-13.167161 8.102868-8.102868 13.167161-20.257171 13.167162-32.411474-12.154303-2.025717-23.295747-5.064293-34.437191-10.128585-9.115727 13.167161-21.27003 25.321464-36.462908 34.437191zM943.561812 661.396637v-32.411474H935.458944c1.012859 10.128586 4.051434 21.27003 8.102868 32.411474zM562.726995 636.075173l-3.038576 6.077151c-9.115727 16.205737-30.385757 21.27003-46.591493 12.154303l-32.411474-19.244312c-16.205737-9.115727-21.27003-30.385757-12.154303-46.591494l3.038576-6.077151c9.115727-16.205737 30.385757-21.27003 46.591494-12.154303l32.411473 19.244313c16.205737 9.115727 21.27003 30.385757 12.154303 46.591493z" fill="#ffffff" p-id="6233"></path></svg>