<?xml version="1.0" standalone="no"?><!DOCTYPE svg PUBLIC "-//W3C//DTD SVG 1.1//EN" "http://www.w3.org/Graphics/SVG/1.1/DTD/svg11.dtd"><svg t="1731050507831" class="icon" viewBox="0 0 1024 1024" version="1.1" xmlns="http://www.w3.org/2000/svg" p-id="10340" xmlns:xlink="http://www.w3.org/1999/xlink" width="200" height="200"><path d="M864.768 895.488h-33.792V798.72c0-125.952-73.216-235.008-179.2-287.232 105.984-52.224 179.2-160.768 179.2-287.232V127.488h33.792c17.408 0 31.232-14.336 31.232-31.744s-13.824-31.744-31.232-31.744H159.232c-17.408 0-31.232 14.336-31.232 31.744s13.824 31.744 31.232 31.744h32.768v96.768c0 125.952 73.216 235.008 179.2 287.232-105.984 52.224-179.2 160.768-179.2 287.232v96.768h-32.768c-17.408 0-31.232 14.336-31.232 31.744s13.824 31.744 31.232 31.744h705.536c17.408 0 31.232-14.336 31.232-31.744s-13.824-31.744-31.232-31.744zM256 222.208V127.488h513.024v94.72c0 141.824-114.688 256.512-256.512 256.512C370.688 478.72 256 364.032 256 222.208z m513.024 673.28H256v-94.72c0-141.824 114.688-256.512 256.512-256.512 141.824 0 256.512 114.688 256.512 256.512v94.72z" fill="#ffffff" p-id="10341"></path><path d="M544.256 384c0-17.92-14.336-32.256-32.256-32.256-71.68 0-128-56.32-128-128 0-17.92-14.336-32.256-32.256-32.256s-32.256 14.336-32.256 32.256c0 107.52 84.48 192 192 192 18.432 0.512 32.768-13.824 32.768-31.744z" fill="#ffffff" p-id="10342"></path></svg>